<mxfile host="app.diagrams.net" modified="2022-03-16T19:14:47.628Z" agent="5.0 (Windows)" etag="iSg2VTHCBHt5IT_qq8wy" version="17.1.3" type="github">
  <diagram id="WEfPkpSngBdoEiuaeqpp" name="Page-1">
    <mxGraphModel dx="782" dy="1589" grid="1" gridSize="10" guides="1" tooltips="1" connect="1" arrows="1" fold="1" page="1" pageScale="1" pageWidth="827" pageHeight="1169" math="0" shadow="0">
      <root>
        <mxCell id="0" />
        <mxCell id="1" parent="0" />
        <mxCell id="TlXfZ2SNmpPf8gCx45ni-1" value="" style="shape=crossbar;whiteSpace=wrap;html=1;rounded=1;" parent="1" vertex="1">
          <mxGeometry x="220" width="460" height="20" as="geometry" />
        </mxCell>
        <mxCell id="TlXfZ2SNmpPf8gCx45ni-2" value="e&lt;sub&gt;1&lt;/sub&gt;" style="rounded=1;whiteSpace=wrap;html=1;strokeWidth=2;fillWeight=4;hachureGap=8;hachureAngle=45;sketch=1;fontStyle=2" parent="1" vertex="1">
          <mxGeometry x="220" y="230" width="60" height="30" as="geometry" />
        </mxCell>
        <mxCell id="TlXfZ2SNmpPf8gCx45ni-3" value="e&lt;sub&gt;2&lt;/sub&gt;" style="rounded=1;whiteSpace=wrap;html=1;strokeWidth=2;fillWeight=4;hachureGap=8;hachureAngle=45;sketch=1;fontStyle=2" parent="1" vertex="1">
          <mxGeometry x="280" y="230" width="160" height="30" as="geometry" />
        </mxCell>
        <mxCell id="TlXfZ2SNmpPf8gCx45ni-4" value="e&lt;sub&gt;3&lt;/sub&gt;" style="rounded=1;whiteSpace=wrap;html=1;strokeWidth=2;fillWeight=4;hachureGap=8;hachureAngle=45;sketch=1;fontStyle=2" parent="1" vertex="1">
          <mxGeometry x="440" y="230" width="30" height="30" as="geometry" />
        </mxCell>
        <mxCell id="TlXfZ2SNmpPf8gCx45ni-5" value="e&lt;sub&gt;4&lt;/sub&gt;" style="rounded=1;whiteSpace=wrap;html=1;strokeWidth=2;fillWeight=4;hachureGap=8;hachureAngle=45;sketch=1;fontStyle=2" parent="1" vertex="1">
          <mxGeometry x="440" y="200" width="140" height="30" as="geometry" />
        </mxCell>
        <mxCell id="TlXfZ2SNmpPf8gCx45ni-6" value="e&lt;sub&gt;5&lt;/sub&gt;" style="rounded=1;whiteSpace=wrap;html=1;strokeWidth=2;fillWeight=4;hachureGap=8;hachureAngle=45;sketch=1;fontStyle=2" parent="1" vertex="1">
          <mxGeometry x="580" y="200" width="100" height="30" as="geometry" />
        </mxCell>
        <mxCell id="TlXfZ2SNmpPf8gCx45ni-7" value="" style="line;strokeWidth=2;html=1;perimeter=backbonePerimeter;points=[];outlineConnect=0;gradientColor=#ffffff;strokeColor=none;" parent="1" vertex="1">
          <mxGeometry x="470" y="253" width="210" height="10" as="geometry" />
        </mxCell>
        <mxCell id="TlXfZ2SNmpPf8gCx45ni-9" value="r&lt;sub&gt;1&lt;br&gt;&lt;/sub&gt;J&lt;sub&gt;1&lt;/sub&gt;" style="text;html=1;strokeColor=none;fillColor=none;align=center;verticalAlign=middle;whiteSpace=wrap;rounded=0;fontStyle=2" parent="1" vertex="1">
          <mxGeometry x="193" y="265" width="60" height="30" as="geometry" />
        </mxCell>
        <mxCell id="TlXfZ2SNmpPf8gCx45ni-10" value="r&lt;sub&gt;2&lt;br&gt;&lt;/sub&gt;J&lt;sub&gt;2&lt;/sub&gt;" style="text;html=1;strokeColor=none;fillColor=none;align=center;verticalAlign=middle;whiteSpace=wrap;rounded=0;fontStyle=2" parent="1" vertex="1">
          <mxGeometry x="252" y="264" width="60" height="30" as="geometry" />
        </mxCell>
        <mxCell id="TlXfZ2SNmpPf8gCx45ni-11" value="&lt;div&gt;r&lt;sub&gt;3 &lt;/sub&gt;r&lt;sub&gt;4&lt;/sub&gt;&lt;br&gt;&lt;/div&gt;&lt;div&gt;J&lt;sub&gt;3&lt;/sub&gt; J&lt;sub&gt;4&lt;/sub&gt;&lt;br&gt;&lt;/div&gt;&lt;div&gt;&lt;br&gt;&lt;/div&gt;&lt;div&gt;&lt;sub&gt;&lt;br&gt;&lt;/sub&gt;&lt;/div&gt;&lt;div&gt;&lt;br&gt;&lt;/div&gt;" style="text;html=1;strokeColor=none;fillColor=none;align=center;verticalAlign=middle;whiteSpace=wrap;rounded=0;fontStyle=2" parent="1" vertex="1">
          <mxGeometry x="410" y="265" width="60" height="75" as="geometry" />
        </mxCell>
        <mxCell id="TlXfZ2SNmpPf8gCx45ni-13" value="r&lt;sub&gt;5&lt;br&gt;&lt;/sub&gt;J&lt;sub&gt;5&lt;/sub&gt;" style="text;html=1;strokeColor=none;fillColor=none;align=center;verticalAlign=middle;whiteSpace=wrap;rounded=0;fontStyle=2" parent="1" vertex="1">
          <mxGeometry x="555" y="263" width="60" height="30" as="geometry" />
        </mxCell>
        <mxCell id="TlXfZ2SNmpPf8gCx45ni-21" value="&lt;i&gt;d&lt;sub&gt;1&lt;/sub&gt;&lt;/i&gt;" style="text;html=1;strokeColor=none;fillColor=none;align=center;verticalAlign=middle;whiteSpace=wrap;rounded=0;dashed=1;" parent="1" vertex="1">
          <mxGeometry x="220" y="120.63" width="60" height="30" as="geometry" />
        </mxCell>
        <mxCell id="TlXfZ2SNmpPf8gCx45ni-22" value="&lt;i&gt;&lt;sub&gt;d2&lt;/sub&gt;&lt;/i&gt;" style="text;html=1;strokeColor=none;fillColor=none;align=center;verticalAlign=middle;whiteSpace=wrap;rounded=0;dashed=1;" parent="1" vertex="1">
          <mxGeometry x="330" y="123.21" width="60" height="30" as="geometry" />
        </mxCell>
        <mxCell id="TlXfZ2SNmpPf8gCx45ni-23" value="d&lt;sub&gt;4&lt;/sub&gt;" style="text;html=1;strokeColor=none;fillColor=none;align=center;verticalAlign=middle;whiteSpace=wrap;rounded=0;dashed=1;fontStyle=2" parent="1" vertex="1">
          <mxGeometry x="484.11" y="120.63" width="50" height="30" as="geometry" />
        </mxCell>
        <mxCell id="TlXfZ2SNmpPf8gCx45ni-27" value="d&lt;sub&gt;5&lt;/sub&gt;" style="text;html=1;strokeColor=none;fillColor=none;align=center;verticalAlign=middle;whiteSpace=wrap;rounded=0;dashed=1;fontStyle=2" parent="1" vertex="1">
          <mxGeometry x="605" y="123.21" width="50" height="30" as="geometry" />
        </mxCell>
        <mxCell id="TlXfZ2SNmpPf8gCx45ni-30" value="d&lt;sub&gt;3&lt;/sub&gt;" style="text;html=1;strokeColor=none;fillColor=none;align=center;verticalAlign=middle;whiteSpace=wrap;rounded=0;dashed=1;fontStyle=2" parent="1" vertex="1">
          <mxGeometry x="530.6800000000001" y="50" width="60" height="22.71" as="geometry" />
        </mxCell>
        <mxCell id="TlXfZ2SNmpPf8gCx45ni-32" value="D&lt;sub&gt;t&lt;/sub&gt;" style="text;html=1;strokeColor=none;fillColor=none;align=center;verticalAlign=middle;whiteSpace=wrap;rounded=0;dashed=1;" parent="1" vertex="1">
          <mxGeometry x="405" y="-23.18" width="90" height="30" as="geometry" />
        </mxCell>
        <mxCell id="TlXfZ2SNmpPf8gCx45ni-33" value="" style="shape=curlyBracket;whiteSpace=wrap;html=1;rounded=1;flipH=1;dashed=1;strokeWidth=1;gradientColor=#ffffff;rotation=-90;" parent="1" vertex="1">
          <mxGeometry x="230.17000000000002" y="131.95" width="39.66" height="61.37" as="geometry" />
        </mxCell>
        <mxCell id="TlXfZ2SNmpPf8gCx45ni-34" value="" style="shape=curlyBracket;whiteSpace=wrap;html=1;rounded=1;flipH=1;dashed=1;strokeWidth=1;gradientColor=#ffffff;rotation=-90;" parent="1" vertex="1">
          <mxGeometry x="344" y="83.25999999999999" width="32" height="158.76" as="geometry" />
        </mxCell>
        <mxCell id="TlXfZ2SNmpPf8gCx45ni-35" value="" style="shape=curlyBracket;whiteSpace=wrap;html=1;rounded=1;flipH=1;dashed=1;strokeWidth=1;gradientColor=#ffffff;rotation=-90;" parent="1" vertex="1">
          <mxGeometry x="493.11" y="94.38" width="32" height="136.49" as="geometry" />
        </mxCell>
        <mxCell id="TlXfZ2SNmpPf8gCx45ni-36" value="" style="shape=curlyBracket;whiteSpace=wrap;html=1;rounded=1;flipH=1;dashed=1;strokeWidth=1;gradientColor=#ffffff;rotation=-90;" parent="1" vertex="1">
          <mxGeometry x="613" y="111.38" width="32" height="102.51" as="geometry" />
        </mxCell>
        <mxCell id="TlXfZ2SNmpPf8gCx45ni-37" value="" style="shape=curlyBracket;whiteSpace=wrap;html=1;rounded=1;flipH=1;dashed=1;strokeWidth=1;gradientColor=#ffffff;rotation=-90;fontStyle=2" parent="1" vertex="1">
          <mxGeometry x="529.01" y="-6.19" width="63.34" height="237.86" as="geometry" />
        </mxCell>
        <mxCell id="TlXfZ2SNmpPf8gCx45ni-39" value="" style="endArrow=classic;html=1;rounded=0;exitX=1;exitY=1;exitDx=0;exitDy=0;" parent="1" edge="1">
          <mxGeometry width="50" height="50" relative="1" as="geometry">
            <mxPoint x="468" y="259" as="sourcePoint" />
            <mxPoint x="728" y="259" as="targetPoint" />
          </mxGeometry>
        </mxCell>
        <mxCell id="TlXfZ2SNmpPf8gCx45ni-40" value="&lt;i&gt;t&lt;/i&gt;" style="text;html=1;strokeColor=none;fillColor=none;align=center;verticalAlign=middle;whiteSpace=wrap;rounded=0;dashed=1;" parent="1" vertex="1">
          <mxGeometry x="680" y="260" width="60" height="20" as="geometry" />
        </mxCell>
        <mxCell id="-1S_ykNe3HPQFk9cWpex-1" value="" style="endArrow=classic;html=1;rounded=0;exitX=0;exitY=1;exitDx=0;exitDy=0;" edge="1" parent="1" source="TlXfZ2SNmpPf8gCx45ni-2">
          <mxGeometry width="50" height="50" relative="1" as="geometry">
            <mxPoint x="370" y="160" as="sourcePoint" />
            <mxPoint x="220" y="50" as="targetPoint" />
          </mxGeometry>
        </mxCell>
        <mxCell id="-1S_ykNe3HPQFk9cWpex-3" value="&lt;i&gt;Jobs executing&lt;/i&gt;" style="text;html=1;strokeColor=none;fillColor=none;align=center;verticalAlign=middle;whiteSpace=wrap;rounded=0;" vertex="1" parent="1">
          <mxGeometry x="160" y="64.38" width="60" height="30" as="geometry" />
        </mxCell>
      </root>
    </mxGraphModel>
  </diagram>
</mxfile>
